PathFileType	4	(X/Y/Z)	RBDS023\RBDS023runT35.trc
DataRate	CameraRate	NumFrames	NumMarkers	Units	OrigDataRate	OrigDataStartFrame	OrigNumFrames
150.000000	150.000000	6	33	mm	150.000000	2812	4500
Frame#	Time	L.ASIS			L.Heel.Bottom			L.Heel.Lateral			L.Heel.Top			L.Iliac.Crest			L.MT1			L.MT5			L.PSIS			L.Shank.Bottom.Lateral			L.Shank.Bottom.Medial			L.Shank.Top.Lateral			L.Shank.Top.Medial			L.Thigh.Bottom.Lateral			L.Thigh.Bottom.Medial			L.Thigh.Top.Lateral			L.Thigh.Top.Medial			R.ASIS			R.ASY			R.Heel.Bottom			R.Heel.Lateral			R.Heel.Top			R.Iliac.Crest			R.MT1			R.MT5			R.PSIS			R.Shank.Bottom.Lateral			R.Shank.Bottom.Medial			R.Shank.Top.Lateral			R.Shank.Top.Medial			R.Thigh.Bottom.Lateral			R.Thigh.Bottom.Medial			R.Thigh.Top.Lateral			R.Thigh.Top.Medial			
		X1	Y1	Z1	X2	Y2	Z2	X3	Y3	Z3	X4	Y4	Z4	X5	Y5	Z5	X6	Y6	Z6	X7	Y7	Z7	X8	Y8	Z8	X9	Y9	Z9	X10	Y10	Z10	X11	Y11	Z11	X12	Y12	Z12	X13	Y13	Z13	X14	Y14	Z14	X15	Y15	Z15	X16	Y16	Z16	X17	Y17	Z17	X18	Y18	Z18	X19	Y19	Z19	X20	Y20	Z20	X21	Y21	Z21	X22	Y22	Z22	X23	Y23	Z23	X24	Y24	Z24	X25	Y25	Z25	X26	Y26	Z26	X27	Y27	Z27	X28	Y28	Z28	X29	Y29	Z29	X30	Y30	Z30	X31	Y31	Z31	X32	Y32	Z32	X33	Y33	Z33	

2813	18.74666666666667	2298.595701824674	968.31329499464	906.3419136994122	2144.035018483518	33.02384494877499	1000.644291633151	2171.341492765148	54.6469410283274	961.6069381696464	2158.072868420358	78.28328698678718	1006.289121508544	2213.505419082881	1026.533753712948	866.0637561121422	2372.375792159951	33.15379402563356	1034.836319152874	2332.860549552906	35.92630518920492	917.365128801893	2121.480809320117	1000.020163420091	976.5222930613349	2261.683253958371	146.304708538904	938.2188637717917	2218.810487189956	163.5488097275717	960.1028676509276	2279.456790832955	220.1741172241443	909.6194848195028	2238.345391545003	242.1650007372647	935.6989197185959	2327.511313241319	631.5057313419737	844.0378010173315	2272.730967951395	607.2585513601732	881.6121899467844	2275.353832081677	728.3699976597228	834.2191733202005	2222.896651055776	705.6529790200129	870.5264359622253	2308.417950277541	944.5868001625246	1121.829011698086	1820.400318796537	383.6735648243457	1086.206470197782	1821.166456903847	582.3059032038655	1058.916730019684	1835.399612884396	553.6277709393912	1105.555421755642	1862.678734734833	558.2243125752556	1057.176799146524	2249.174232172811	1026.804746341599	1174.413389165846	1759.319676380286	365.4442041147739	1048.056226759118	1777.419383810558	402.8372006392172	1154.166177719655	2130.143799733946	996.9003817574127	1082.947408400175	1939.480998723187	482.511539783424	1122.6750025899	1943.865190556945	528.8847324811688	1092.17912923692	2019.534925315043	485.9691520786397	1136.993867495205	2022.915916958021	530.0211439594827	1105.771927870767	2255.59635457409	549.1141453705532	1155.886023021013	2203.331486693745	542.1282783073647	1104.947836261759	2222.511636005785	652.5869416921569	1171.473710751463	2173.346655864516	645.894011460774	1123.356039022673	
2814	18.75333333333333	2295.980710737953	965.9615731364835	905.1172936700269	2120.76409217527	33.27128314765699	1000.792795083508	2148.009866073908	54.91922094549842	961.6480817908182	2134.684612358575	78.5333323849934	1006.298312538454	2209.601080874246	1023.191317690386	866.4507678914423	2348.723324853174	33.4840288131489	1034.799828330561	2309.253232293372	36.41113752625047	917.4108354899647	2119.044102094462	998.3359763697317	977.3068470831595	2240.629218978774	145.7390331748715	938.2421689412355	2198.193661265307	164.3800666266873	959.8293841889799	2260.895766042297	218.9429335222592	909.5876426918181	2220.331898987215	242.2440596448991	935.390052789611	2319.750306045704	627.5888118744459	844.0032483663558	2264.543571113736	604.4962926145114	881.6698892640245	2269.545314122037	725.4577854356468	834.2949523961104	2216.770391442492	703.864722752491	870.8119882864016	2306.204658534859	942.6018953482908	1121.859489061585	1838.760916464249	376.7624229571658	1085.862169886761	1833.499662046177	575.5639348745922	1060.470381586094	1848.811429689047	546.8224735400192	1106.706077565418	1875.714091089861	552.636606493154	1058.273633765677	2244.528682127229	1024.657837283432	1174.5459306555	1778.028972468046	356.9715521243519	1048.070745745932	1795.708741087395	393.9228739016937	1154.410888643898	2127.944736853327	995.1752411571703	1083.111504634624	1954.830712567768	477.7118291599602	1123.15299029205	1958.510000713683	524.30770427984	1092.93842755718	2034.79759059212	482.3400234526151	1137.565888462281	2037.51991396164	526.5914289487059	1106.611310992554	2268.052168942668	549.2084205392433	1157.287365811293	2215.603441198753	539.7179691576374	1107.088559642634	2230.766074502304	651.2582830344942	1172.787283306129	2181.2250272846	642.0751830999909	1125.529035082757	
2815	18.76	2293.641257150488	964.2528001331913	904.0614373956199	2097.356342597312	33.4723667252592	1000.961902744522	2124.573443723542	55.10133293610549	961.7193179577348	2111.196771492863	78.73492733066831	1006.316128346995	2206.073163983301	1020.993440150913	866.7383286968966	2325.010457000459	33.61242053449018	1034.726571643771	2285.577996339442	36.63867845429762	917.5040120408788	2116.910776477709	997.3898187073423	977.784575959484	2219.173942286432	145.1586760340567	938.2851931453886	2177.183652241107	165.0203022753893	959.627431294859	2241.65947995866	217.69945689016	909.6318742555652	2201.636496929577	242.1441276575922	935.1932985533998	2311.359111883123	623.9746190189478	844.0720280299417	2255.494477091574	602.1701667856764	881.5383426621221	2263.487821593531	722.987667130166	834.492032350494	2210.212314916854	702.6559918718751	871.0255024344166	2304.141053479334	941.6783569241142	1122.001501599753	1857.611159726608	368.5322464143836	1085.324309131048	1845.129392186536	567.2751066746489	1061.849472992197	1861.591286880045	538.602452930032	1107.676716188014	1888.110381023964	545.8169813939797	1059.245005290947	2239.966240245627	1023.613092273526	1174.480551505786	1797.468543486107	346.861856513746	1047.706565803804	1814.279010181051	383.437362315142	1154.331359442025	2125.890790560392	994.2138982418311	1083.097250384636	1969.966230202225	472.2105151728754	1123.475208305223	1972.618469676558	519.0593225229442	1093.590812024552	2049.787553438524	478.5416807578404	1137.992857750628	2051.523984624127	523.0205876231398	1107.372689049571	2280.545087439095	550.7022236210845	1158.618457523107	2228.102643439391	538.6827635464575	1109.071545409697	2239.084666632554	651.1348622216933	1174.02700115682	2189.340367634145	639.4365842128518	1127.572740176371	
2816	18.76666666666667	2291.614228287837	963.140202789278	903.2453809732194	2073.826807166102	33.72740780001413	1001.154100844004	2101.056897539257	55.29590171934687	961.8337750846085	2087.652474816291	78.98406455514116	1006.363102188089	2203.101725020006	1019.90495540452	866.8981422021701	2301.273707946198	33.51821390819875	1034.657595785236	2261.850320135494	36.65203865634495	917.6626712498773	2115.107865975569	997.1540566379952	977.9581068642158	2197.40201791118	144.6570796566748	938.383233421671	2155.859557002997	165.5770690963732	959.5424154530409	2221.849966825794	216.5573824794844	909.782703195205	2182.357133850157	241.9955079230583	935.1477228918037	2302.401035297298	620.7474957083559	844.2238137205791	2245.686255386131	600.3554305024518	881.2337887039372	2257.208737659871	721.0044009725634	834.7912035123675	2203.284473688773	702.0598967639399	871.1767071294702	2302.262815736449	941.806074781572	1122.245796712963	1876.937280840548	359.0986900486877	1084.608811433353	1856.097761626878	557.4033932902666	1063.025062561759	1873.786051867979	528.9691895221795	1108.454989697871	1899.881022041663	537.7443311673593	1060.067463583933	2235.68499312431	1023.624538750884	1174.256246606134	1817.65973732376	335.2626087918871	1046.982076975154	1833.176509787986	371.5082116229099	1153.933953424056	2124.011777143499	994.0143079899099	1082.923488278528	1984.856941637875	466.0327840023826	1123.633116773853	1986.167625826629	513.1453019133643	1094.129036721057	2064.442464504606	474.5799813451876	1138.273295365891	2064.876521236708	519.294966461987	1108.048642828663	2292.902350977432	553.5731585083626	1159.856870884727	2240.635176373941	539.0431026292448	1110.866391113104	2247.346131787438	652.2106652993593	1175.185612964037	2197.570531428689	638.0246075911197	1129.461275042777	
2817	18.77333333333333	2289.932785904476	962.572988105424	902.7138447118559	2050.194066075286	34.14657822728864	1001.361046229636	2077.48265908967	55.61008209351902	961.9860780341497	2064.08618286716	79.38857978084616	1006.43437183516	2200.849846182432	1019.838954093363	866.9128448450518	2277.534299335381	33.23532503515531	1034.619502137236	2238.077806446855	36.51976695494293	917.8953292507256	2113.654712127366	997.5928341834851	977.8492364560828	2175.38313028631	144.3477734697655	938.5476313516062	2134.285891668177	166.1811706041125	959.5912188484317	2201.562047677085	215.6458215516924	910.0488567801009	2162.582862397537	241.9456998974524	935.2650499199856	2292.934923889682	617.9904887782486	844.4586859428839	2235.2368204824	599.1349586975903	880.823632363592	2250.726752364301	719.5471409359575	835.1795392110262	2196.05483970317	702.1116290644571	871.3001566044325	2300.601810067019	942.9348532996853	1122.573937259127	1896.748687625529	348.5992287937264	1083.724531700378	1866.496588462811	545.9260869702208	1063.976878636976	1885.491721867214	517.9296499390846	1109.030943385489	1911.085738370502	528.4014899355352	1060.722100050871	2231.861954700825	1024.622102855243	1173.91660034182	1838.644832091938	322.3496217904685	1045.92031838854	1852.483169365554	358.2815465485858	1153.231031992849	2122.338278127645	994.5670865383398	1082.612927341647	1999.501783891768	459.2050447805	1123.622125754711	1999.172714669215	506.5641013958825	1094.542267703125	2078.723163991227	470.449749567497	1138.408948702148	2077.559768249572	515.3808770624723	1108.626518495289	2304.953595351257	557.7569760418028	1160.988643575171	2253.0003605029	540.7803132058818	1112.45792523064	2255.4336583622	654.4483562783636	1176.265261112007	2205.787872743169	637.8566361403051	1131.180330375696	
2818	18.78	2288.625914952383	962.5052778677497	902.4831467370129	2026.47965704491	34.85004762072021	1001.564420046777	2053.872529423938	56.15331938831368	962.1536733192828	2040.52772994033	80.06727211362825	1006.501872735625	2199.4489286183	1020.673617899961	866.7770122688091	2253.799574321229	32.83100424581706	1034.623846034433	2214.262618058988	36.31751215052508	918.2000970091211	2112.564730460873	998.666916881499	977.4936899359604	2153.177408861217	144.3541713970124	938.766569775097	2112.517323213329	166.9740819339877	959.7622503419805	2180.885488307102	215.0988731842748	910.4176524323399	2142.395084642221	242.1468510677505	935.5292091255593	2283.015567349567	615.7828181604244	844.7951476575887	2224.274417081775	598.5949435644815	880.4164389257113	2244.054874974749	718.6494258683801	835.6508625580544	2188.595455353085	702.8473490417213	871.4496869887514	2299.186793666508	944.9825487030264	1122.960479783455	1917.074118541611	337.1895386684663	1082.675191739206	1876.465808811708	532.8404906994627	1064.691970692376	1896.848220300546	505.499999773966	1109.395421386537	1921.828707707674	517.7793276438426	1061.193744288546	2228.637296050713	1026.521341474514	1173.504777772831	1860.480541143028	308.3220940222098	1044.548053324723	1872.306611192877	343.920846370581	1152.240301844731	2120.901378250116	995.8550896904643	1082.190116472225	2013.92789673509	451.7551476806619	1123.44189334864	2011.685085798605	499.309180310706	1094.816974523701	2092.615105485469	466.1356979963091	1138.404198750291	2089.589424328012	511.2278933464345	1109.089677042562	2316.541726319729	563.1490685249125	1162.008240620238	2265.006627506342	543.8365072712828	1113.844076512471	2263.242930604221	657.780255313437	1177.275665130472	2213.869376891038	638.9186042921169	1132.725189817519	
